<svg xmlns="http://www.w3.org/2000/svg" version="1.1" x="0px"
     y="0px" viewBox="0 0 100 100" enable-background="new 0 0 100 100" xml:space="preserve"><g><g><path d="M58.767,43.549c-0.084-0.052-0.175-0.105-0.271-0.158l0.008-0.013l-0.216-0.132c-0.97-0.598-2.592-1.6-4.035-1.25    c-0.632,0.152-1.157,0.544-1.513,1.129c-0.764,1.242-0.078,3.008,1.052,3.76c0.467,0.308,1.179,0.512,1.867,0.696    c0.118,0.032,0.213,0.056,0.185,0.039c1.382,0.691,1.013,3.515,0.63,4.891c-0.1,0.33-0.236,0.799-0.365,1.246    c-0.162,0.557-0.311,1.079-0.319,1.125l-0.723,1.432c-0.303,0.603-0.574,1.142-0.646,1.275l-0.104,0.209    c-0.206,0.414-0.495,1.002-0.571,1.13c-0.422,0.575-0.838,1.157-1.254,1.739c-1.078,1.509-2.193,3.07-3.422,4.471    c-0.874,1.014-2.463,2.826-2.607,2.979c-3.514,3.695-4.934,4.715-9.785,5.466c-2.557,0.396-5.211-0.303-6.599-1.741    c-0.969-1.003-1.308-2.317-1.005-3.906c0.25-1.318,1.041-2.54,1.829-3.679c1.135-1.64,2.409-3.321,4.032-4.507    c0.221-0.161,0.45-0.315,0.679-0.469c0.751-0.506,1.527-1.029,2.133-1.819c0.951-1.239,1.2-3.222-0.028-4.393    c-1.175-1.123-3.065-0.99-5.056,0.352c-4.673,3.15-9.593,8.883-10.048,14.592c-0.263,3.306,0.929,6.223,3.544,8.67    c0.831,0.777,3.8,2.875,5.547,2.996c0.324,0.027,0.726,0.037,1.141,0.037c0.623,0,1.275-0.021,1.74-0.037    c0.226-0.007,0.403,0.003,0.442-0.014c3.876,0.249,6.874-1.263,10.049-2.861l0.421-0.212c1.177-0.589,1.613-1.389,1.812-1.907    c1.296-0.707,2.131-1.896,2.94-3.049c0.405-0.577,0.788-1.123,1.207-1.578l0.326-0.355c0.157-0.172,0.312-0.343,0.415-0.448    c1.232-1.406,2.42-2.867,3.57-4.279l0.454-0.558c0.762-0.921,1.779-2.899,1.793-2.929c0.248-0.508,0.759-1.416,0.952-1.757    l0.08-0.144c0.255-0.475,0.648-1.221,0.947-1.787c0.204-0.388,0.363-0.689,0.4-0.757c2.001-3.671,2.03-6.647,1.429-10.254    C61.569,45.234,59.392,43.899,58.767,43.549z"/><path
        d="M76.628,28.246l-0.042-0.123c-0.308-1.963-0.944-3.214-1.94-4.381l0.087-0.096c-0.267-0.241-0.531-0.502-0.797-0.766    c-1.145-1.133-2.442-2.416-4.367-2.578c-1.299-0.099-3.338,0.302-4.434,0.519c-0.211,0.042-0.365,0.074-0.34,0.078    c-4.264,0-8.1,3.923-10.9,6.787c-0.497,0.509-0.967,0.989-1.404,1.413c-1.262,1.215-2.577,2.416-3.716,3.447    c-0.32,0.306-0.946,0.903-1.073,1.015c-3.969,3.569-7.684,10.122-7.106,15.742c0.234,2.258,0.526,2.748,1.113,3.557    c0.258,0.355,0.55,0.759,0.959,1.616c0.271,0.566,0.836,1.194,1.393,1.788c0.087,0.093,0.161,0.17,0.209,0.226    c0.773,1.401,3.326,3.214,5.328,3.214c0.224,0,0.441-0.023,0.648-0.071c0.559-0.131,1.861-0.666,1.871-2.783    c0.009-1.98-1.818-2.849-3.152-3.483c-0.271-0.129-0.53-0.252-0.75-0.372c-2.028-4.426-1.456-7.494,0.386-11.863    c0.619-1.452,2.793-4.043,3.072-4.338l0.649-0.568c0.827-0.722,1.682-1.468,2.474-2.297c0.831-0.875,2.487-2.605,2.607-2.726    c1.209-1.21,1.894-1.884,1.998-1.975c0.218-0.153,0.434-0.31,0.648-0.465c0.806-0.585,1.568-1.139,2.423-1.502l0.359-0.153    c0.838-0.358,2.535-1.083,2.953-1.235c0.292-0.029,0.598-0.075,0.909-0.122c1.215-0.183,2.051-0.267,2.587,0.202    c0.475,0.417,0.916,1.061,1.341,1.683c0.241,0.352,0.474,0.692,0.7,0.979c0.161,0.21,0.408,0.898,0.468,1.172    c-0.008,1.964-0.344,2.747-1.142,4.607c-0.163,0.379-0.342,0.797-0.542,1.282c-0.146,0.365-0.523,1.056-0.563,1.125l-0.269,0.29    c-0.789,0.841-1.981,2.112-1.91,3.512c0.033,0.649,0.334,1.238,0.875,1.708c0.503,0.432,1.102,0.621,1.725,0.55    c1.509-0.174,2.724-1.833,3.449-2.824l0.226-0.304c0.284-0.383,0.62-1.006,0.842-1.418c0.065-0.12,0.115-0.214,0.13-0.241    c1.204-1.798,2.409-3.715,2.763-5.646C77.584,31.253,77.086,29.576,76.628,28.246z"/></g></g></svg>
