<svg xmlns="http://www.w3.org/2000/svg" fill="#ff0038" version="1.1" x="0px" y="0px" viewBox="0 0 100 100"
     enable-background="new 0 0 100 100" xml:space="preserve"><g><g><path d="M82.088,64.517c-5.079,0-10.218,0.117-15.188,0.23c-4.974,0.113-10.117,0.23-15.204,0.23l-3.668,0.003    c-2.445,0.003-4.889,0.006-7.334-0.003c-0.266-0.001-0.517-0.012-0.753-0.022c-1.346-0.06-2.509-0.111-3.348,2.08    c-0.779,2.031-0.613,4.517-0.453,6.92c0.056,0.829,0.108,1.625,0.121,2.373c-0.021,0.827-0.084,1.72,0.142,2.399    c0.017,0.309,0.098,0.59,0.15,0.741c0.021,0.605,0.216,1.125,0.581,1.544c1.424,1.641,5.272,1.3,7.818,1.075    c0.664-0.059,1.237-0.109,1.611-0.109c3.11,0,6.22,0.016,9.329,0.031c3.701,0.019,7.401,0.037,11.102,0.029    c2.091-0.004,4.206,0.096,6.252,0.194c3.995,0.19,8.127,0.387,12.236-0.196c0.5-0.07,0.948-0.152,1.368-0.44    c1.105-0.759,1.105-1.783,1.105-2.868c0-0.98,0.012-1.965,0.025-2.95c0.012-0.979,0.024-1.974,0.024-2.973    c0-0.993-0.012-1.99-0.049-2.976C87.765,64.774,85.602,64.517,82.088,64.517z"/><path
        d="M82.088,41.482c-5.079,0-10.218,0.117-15.188,0.23c-4.974,0.113-10.117,0.23-15.204,0.23l-3.668,0.003    c-2.445,0.003-4.889,0.006-7.334-0.003c-0.266-0.001-0.517-0.012-0.753-0.022c-1.346-0.06-2.509-0.111-3.348,2.08    c-0.779,2.031-0.613,4.517-0.453,6.92c0.056,0.829,0.108,1.625,0.121,2.373c-0.021,0.827-0.084,1.72,0.142,2.399    c0.017,0.309,0.098,0.59,0.15,0.741c0.021,0.605,0.216,1.125,0.581,1.544c1.424,1.641,5.272,1.3,7.818,1.075    c0.664-0.059,1.237-0.109,1.611-0.109c3.11,0,6.22,0.016,9.329,0.031c3.701,0.019,7.401,0.037,11.102,0.029    c2.091-0.004,4.206,0.096,6.252,0.194c3.995,0.19,8.127,0.387,12.236-0.196c0.5-0.07,0.948-0.152,1.368-0.44    c1.105-0.759,1.105-1.783,1.105-2.868c0-0.98,0.012-1.965,0.025-2.95c0.012-0.979,0.024-1.974,0.024-2.973    c0-0.993-0.012-1.99-0.049-2.976C87.765,41.739,85.602,41.482,82.088,41.482z"/><path
        d="M36.259,29.386c-0.021,0.826-0.084,1.719,0.142,2.399c0.017,0.309,0.098,0.59,0.15,0.741    c0.021,0.605,0.216,1.125,0.58,1.544c1.424,1.641,5.272,1.3,7.819,1.075c0.664-0.059,1.237-0.109,1.611-0.109    c3.102,0,6.205,0.016,9.307,0.031c3.708,0.019,7.417,0.037,11.125,0.029c2.09-0.004,4.204,0.096,6.249,0.194    c3.996,0.19,8.129,0.387,12.24-0.196c0.5-0.07,0.948-0.152,1.368-0.44c1.105-0.759,1.105-1.783,1.105-2.868    c0-0.98,0.012-1.965,0.025-2.95c0.012-0.979,0.024-1.974,0.024-2.973c0-0.993-0.012-1.989-0.049-2.976    c-0.19-5.055-2.354-5.312-5.868-5.312c-5.079,0-10.218,0.117-15.188,0.23c-4.974,0.113-10.117,0.23-15.204,0.23l-3.668,0.003    c-2.445,0.003-4.889,0.006-7.334-0.003c-0.266-0.001-0.517-0.012-0.753-0.022c-1.346-0.06-2.509-0.111-3.348,2.08    c-0.779,2.031-0.613,4.517-0.453,6.92C36.194,27.842,36.247,28.638,36.259,29.386z"/><path
        d="M23.293,64.748c-1.817,0.113-3.697,0.23-5.555,0.23l-1.34,0.003c-0.893,0.003-1.786,0.006-2.68-0.003    c-0.097-0.001-0.189-0.012-0.275-0.022c-0.492-0.06-0.917-0.111-1.223,2.08c-0.285,2.031-0.224,4.517-0.166,6.92    c0.02,0.829,0.04,1.625,0.044,2.374c-0.031,3.448,0.134,5.649,3.764,5.649c1.136,0,2.273,0.016,3.409,0.031    c1.352,0.019,2.704,0.037,4.057,0.029c0.764-0.004,1.537,0.096,2.284,0.194c1.46,0.19,2.969,0.387,4.471-0.196    c0.183-0.07,0.347-0.152,0.5-0.44c0.404-0.759,0.404-1.783,0.404-2.868c0-0.98,0.004-1.965,0.009-2.95    c0.004-0.979,0.009-1.974,0.009-2.973c0-0.993-0.004-1.99-0.018-2.976C30.902,63.634,28.583,64.418,23.293,64.748z"/><path
        d="M28.843,41.483c-1.856,0-3.733,0.117-5.549,0.23c-1.817,0.113-3.697,0.23-5.556,0.23c-0.85,0.002-4.843,0.774-5.273,1.432    c-0.127,0.195-0.145,0.439-0.159,0.672c-0.139,2.321-0.309,4.538-0.252,6.874c0.02,0.829,0.04,1.625,0.044,2.373    c-0.008,0.827-0.031,1.72,0.052,2.401c0.089,4.297,3.993,3.237,7.122,3.281c3.063,0.042,8.195,1.127,10.601-1.499    c2.184-2.384,1.154-7.762,1.114-10.681C30.917,41.74,30.127,41.483,28.843,41.483z"/><path
        d="M12.098,29.387c-0.008,0.826-0.031,1.719,0.052,2.4c0.066,3.218,0.925,3.251,3.712,3.25c1.133,0,2.267,0.016,3.401,0.031    c1.355,0.019,2.71,0.037,4.065,0.029c3.715-0.021,7.659,1.937,7.659-3.313c0-0.98,0.004-1.963,0.009-2.948    c0.004-0.979,0.009-1.974,0.009-2.973c0-0.993-0.004-1.989-0.018-2.976c-0.073-5.341-3.027-5.372-7.696-5.081    c-1.816,0.113-3.695,0.23-5.553,0.23c0,0-1.34,0.003-1.34,0.003c-4.951,0.016-4.433,5.316-4.344,8.975    C12.074,27.843,12.093,28.639,12.098,29.387z"/></g></g></svg>
