<svg xmlns="http://www.w3.org/2000/svg" fill="#ffffff" version="1.1" x="0px" y="0px" viewBox="0 0 100 100"
     enable-background="new 0 0 100 100" xml:space="preserve"><g><g><path d="M42.555,20.54c0,0,1.995,0.765,3.015,1.035c0.269,0.07,0.548,0.149,0.831,0.233c0.323,0.08,0.645,0.162,0.969,0.247    L42.555,20.54z"/><path
        d="M76.215,69.86c-3.015-3.405-6.225-6.36-9.435-9.57c-0.585-0.585-2.835-3.405-3.96-3.96c-1.17-0.57-3.75,1.05-3.84,0.915    c-0.27-0.405-0.81-1.215-0.9-1.35c-0.547-0.878-1.105-1.742-1.685-2.596l0.095,0.076c-0.054-0.073-0.114-0.152-0.176-0.232    c3.145-3.93,4.953-9.105,4.706-13.763c-0.544-10.16-9.557-17.832-19.145-18.973c-3.093-0.368-5.937,0.011-8.888,0.961    c-3.688,1.187-6.409,3.996-8.072,7.437c-0.855,1.77-1.995,3.435-2.595,5.325c-2.325,7.335,0.15,14.805,4.95,20.4    c1.515,1.764,3.852,3.948,6.05,4.755c6.393,2.347,14.999,1.012,20.259-3.362c0.663,1.015,1.377,2.004,2.032,3.001    c-0.191,0.46,0.136,1.479,0.009,1.606c-0.345,0.855,2.1,1.8,2.205,1.905c4.02,4.35,7.635,9.255,11.19,13.995    c0.84,1.125,1.59,3.33,3.255,3.3c2.16-0.03,4.605-3.285,5.55-4.5C79.605,72.935,77.82,71.676,76.215,69.86z M47.04,55.941    c-2.209,0.959-4.636,0.02-6.91,0.106c-2.29,0.086-4.069,0.6-6.33-0.288c-4-1.571-6.675-5.567-8.063-9.474    c-2.158-6.073-0.457-12.562,2.883-17.854c8.129-12.879,28.822-1.578,29.4,11.251C58.363,47.296,53.691,53.029,47.04,55.941z"/></g></g></svg>
