<svg xmlns="http://www.w3.org/2000/svg" xmlns:xlink="http://www.w3.org/1999/xlink" fill="#ffffff" version="1.1" x="0px"
     y="0px" viewBox="0 0 100 100" enable-background="new 0 0 100 100" xml:space="preserve"><g><g><path d="M54.816,51.422c2.03-2.811,3.352-4.555,5.36-6.851c0.466-0.466,1.529-1.531,2.151-2.464l0.931-1.403    c0.05-0.099,0.117-0.215,0.183-0.325c0.751,0.38,1.456,0.759,2.058,1.241l0.11,0.108h0.176c0.024,0.004,0.077,0.022,0.133,0.045    c0.685,1.064,1.506,1.444,2.416,1.142c0.674-0.169,1.159-0.645,1.403-1.377l0.025-0.794c0.244-0.528,0.387-1.12,0.513-1.646    l0.072-0.296l0.015-0.987c0.741-0.978,0.75-3.013,0.75-3.035l-0.003-1.145c0.038-0.345,0.086-0.69,0.134-1.033    c0.14-0.998,0.284-2.03,0.168-2.922c0-0.246-0.039-0.534-0.08-0.821c-0.034-0.237-0.07-0.475-0.07-0.679    c0-0.156-0.051-0.31-0.101-0.458c-0.015-0.045-0.031-0.089-0.042-0.118c0.119-0.541,0.189-1.477-0.455-2.328    c-0.383-0.383-1.223-0.548-1.471-0.589l-0.014,0.048c-1.982-0.311-4.317,1.098-5.884,2.043c-0.306,0.185-0.583,0.352-0.821,0.484    c-0.552,0.15-1.265,0.488-1.477,0.591c-0.775,0.163-1.537,0.468-2.31,0.78c-0.206,0.103-0.656,0.227-0.798,0.262    c-0.173,0.043-0.374,0.086-0.591,0.132c-1.292,0.275-3.245,0.691-3.681,2.144c-0.506,1.687,0.979,2.865,2.172,3.811    c0.482,0.382,0.937,0.743,1.178,1.066c0.728,0.975,0.17,1.662-0.963,2.89c-0.318,0.345-0.648,0.703-0.898,1.038    c-2.819,2.819-5.285,5.98-7.669,9.038c-2.077,2.663-4.225,5.417-6.581,7.912c-1.062,1.062-2.134,2.287-3.176,3.479    c-0.454,0.529-0.907,1.096-1.361,1.663c-0.446,0.558-0.893,1.116-1.339,1.637l-0.068,0.102c-0.078,0.156-0.343,0.456-0.569,0.696    c-0.441,0.662-0.932,1.303-1.406,1.924c-0.484,0.633-0.985,1.288-1.407,1.929l-0.205,0.235c-0.954,1.089-2.729,3.115-2.35,4.764    c0.153,0.663,0.621,1.163,1.39,1.487l0.096,0.029c0.375,0.075,0.786,0.115,1.181,0.153c0.396,0.038,0.77,0.073,1.045,0.142    l0.122,0.015c0.228,0,0.456,0.032,0.684,0.062c0.265,0.036,0.547,0.073,0.834,0.073s0.579-0.038,0.863-0.153    c1.494-0.407,2.709-1.949,3.597-3.074c0.199-0.253,0.384-0.487,0.588-0.731c0.381-0.571,0.912-1.168,1.425-1.746    c0.27-0.304,0.54-0.607,0.784-0.9c2.876-3.251,6.621-7.574,10.062-12.165c0.829-1.012,1.369-1.996,1.94-3.037    C53.962,52.827,54.349,52.123,54.816,51.422z"/><path
        d="M31.29,44.156c3.342,2.957,6.137,5.324,8.796,7.447l0.538,0.429l0.242-0.644c0.22-0.585,0.587-1.102,1.092-1.536    c0.423-0.364,0.868-0.715,1.365-1.077c0.421-0.377,1.037-0.98,1.421-1.363c0.172-0.171,0.37-0.331,0.624-0.503l0.713-0.83    l-0.375-0.318c-1.077-0.913-1.892-1.636-2.631-2.334c-1.054-1.054-2.271-2.12-3.478-3.176c-0.529-0.453-1.096-0.907-1.663-1.36    c-0.558-0.446-1.116-0.893-1.637-1.339l-0.101-0.067c-0.156-0.079-0.457-0.344-0.697-0.569c-0.661-0.44-1.302-0.931-1.922-1.405    c-0.634-0.484-1.289-0.985-1.93-1.408l-0.235-0.206c-1.088-0.954-3.117-2.735-4.763-2.349c-0.663,0.152-1.163,0.62-1.487,1.39    l-0.029,0.096c-0.075,0.376-0.116,0.788-0.153,1.185c-0.038,0.394-0.073,0.767-0.142,1.042l-0.015,0.121    c0,0.228-0.032,0.456-0.062,0.684c-0.071,0.529-0.151,1.13,0.08,1.698c0.408,1.494,1.95,2.709,3.075,3.597    c0.252,0.199,0.486,0.383,0.73,0.587c0.57,0.38,1.167,0.91,1.743,1.423C30.692,43.641,30.997,43.912,31.29,44.156z"/><path
        d="M75.266,71.75c0.311-1.983-1.097-4.316-2.043-5.884c-0.185-0.306-0.352-0.583-0.484-0.821    c-0.15-0.552-0.488-1.265-0.591-1.477c-0.162-0.771-0.466-1.531-0.78-2.311c-0.083-0.166-0.191-0.52-0.262-0.797    c-0.043-0.173-0.086-0.374-0.133-0.592c-0.275-1.292-0.692-3.244-2.144-3.679c-1.689-0.506-2.865,0.979-3.811,2.172    c-0.382,0.482-0.743,0.937-1.066,1.178c-0.975,0.727-1.661,0.17-2.89-0.963c-0.345-0.318-0.702-0.647-1.038-0.898    c-0.648-0.648-1.353-1.313-2.153-2.032l-0.386-0.347l-0.333,0.398c-1.214,1.454-2.53,3.008-3.923,4.515l-0.362,0.392l0.415,0.336    c0.692,0.56,1.394,1.149,2.135,1.795c0.458,0.458,1.53,1.532,2.476,2.163l1.404,0.931c0.099,0.049,0.215,0.116,0.324,0.183    c-0.38,0.751-0.759,1.456-1.241,2.058l-0.108,0.11v0.175c-0.004,0.025-0.022,0.077-0.045,0.133    c-1.065,0.684-1.446,1.507-1.142,2.415c0.168,0.674,0.645,1.16,1.377,1.404l0.794,0.025c0.525,0.243,1.116,0.385,1.64,0.512    l0.302,0.073l0.987,0.015c0.978,0.741,3.013,0.75,3.034,0.75l1.145-0.003c0.345,0.038,0.69,0.086,1.033,0.134    c0.743,0.104,1.505,0.21,2.214,0.21c0.243,0,0.48-0.013,0.708-0.042c0.246,0,0.534-0.039,0.821-0.08    c0.419-0.06,0.794-0.057,1.137-0.17c0.045-0.015,0.089-0.031,0.118-0.042c0.541,0.119,1.477,0.19,2.328-0.455    c0.383-0.383,0.548-1.223,0.589-1.471L75.266,71.75z"/></g></g></svg>