<svg xmlns="http://www.w3.org/2000/svg" version="1.1" x="0px" y="0px" viewBox="0 0 100 100"
     enable-background="new 0 0 100 100" xml:space="preserve"><g><g><path d="M30.671,66.741c-0.393-0.007-0.765-0.013-0.985-0.067c-0.553-0.184-1.47-0.418-2.125-0.579    c0.639-1.023,0.468-2.055,0.21-3.079L27.72,62.71c-0.095-0.561-0.284-1.677-0.284-2.062l0.042-0.25    c0-2.883-0.164-5.757-0.323-8.538c-0.107-1.87-0.217-3.803-0.279-5.758c-0.061-0.668-0.171-1.607-0.281-2.491    c0.059-1.406,0.1-2.825,0.1-4.246l-0.042-0.25c0-0.385,0.189-1.501,0.284-2.062l0.052-0.307c0.258-1.024,0.429-2.055-0.21-3.079    c0.655-0.16,1.572-0.395,2.125-0.579c0.22-0.054,0.592-0.06,0.985-0.067c0.866-0.015,1.847-0.032,2.379-0.693    c0.314-0.39,0.404-0.932,0.268-1.613c-0.102-0.828-1.292-2.297-3.85-4.727l-0.187-0.178c-0.37-0.37-0.739-0.776-1.108-1.183    c-0.38-0.418-0.761-0.837-1.142-1.217L26.01,23.12c-1.292-1.565-3.031-3.67-5.204-3.81l-0.01-0.095h-0.45    c-0.418,0-0.948,0.19-1.273,0.353c-0.966,0.483-1.754,1.407-2.417,2.235l-0.539,0.728c-1.487,2.231-4.527,5.199-4.718,8.026    c-0.22,3.272,4.534,2.299,6.842,2.187c0.711,2.285,0.005,4.335,0.254,6.625c0.15,1.376,0.15,2.422,0.15,3.747    c0.046,0.321,0.15,1.015,0.15,1.35v2.046c-0.058,0.269-0.3,1.438-0.3,2.154c-0.147,2.783-0.3,5.687-0.3,8.55    c-0.201,3.211-0.33,6.464-0.396,9.71c-2.441-0.217-5.804-0.484-5.618,2.282c0.19,2.827,3.23,5.795,4.718,8.026l0.539,0.728    c0.663,0.828,1.451,1.752,2.417,2.235c0.326,0.163,0.855,0.353,1.273,0.353h0.45l0.01-0.095c2.173-0.139,3.912-2.245,5.204-3.81    l0.239-0.292c0.38-0.38,0.761-0.799,1.142-1.217c0.37-0.406,0.739-0.813,1.108-1.183l0.187-0.178    c2.559-2.43,3.748-3.899,3.85-4.727c0.136-0.681,0.046-1.223-0.268-1.613C32.518,66.773,31.537,66.756,30.671,66.741z"/><path
        d="M60.936,71.436c-2.806-1.564-6.924-0.297-9.947-0.297c-2.31,0-4.621-0.011-6.931,0c-2.687,0.013-3.168,0.461-3.032,3.238    c0,0.009,0.002,0.048,0.002,0.048c0.063,0.632-0.023,1.33-0.106,2.004c-0.106,0.855-0.215,1.739-0.035,2.554l0.131,0.392    c0.097,1.876,8.865,1.339,9.993,1.331c2.338-0.017,4.675-0.098,7.012-0.181c0.755-0.027,1.789,0.119,2.516-0.089    C63.253,79.658,62.937,72.552,60.936,71.436z"/><path
        d="M74.23,48.534c-0.179-0.167-0.428-0.23-0.667-0.28c-5.021-1.059-10.549-0.47-15.658-0.47    c-3.923,0-8.023-0.283-12.017-0.032c-1.613,0.101-3.208,0.29-4.767,0.619c-0.265,0.056-0.544,0.131-0.731,0.327    c-0.187,0.196-0.25,0.477-0.295,0.744c-0.766,4.55,0.442,5.452,4.602,5.452c3.302,0,6.605,0,9.907,0    c3.599,0,7.195-0.238,10.794-0.181c1.995,0.032,7.182,1.38,8.68-0.399c0.784-1.372,0.449-3.09,0.454-4.687    C74.534,49.238,74.515,48.8,74.23,48.534z M69.139,50.935c0.059-0.007,0.119-0.015,0.178-0.021    c0.004,0.007,0.009,0.014,0.014,0.021H69.139z"/><path
        d="M79.276,23.395c-6.559,0-13.119,0-19.678,0c-3.058,0-6.115,0.002-9.173,0c-2.85-0.002-9.504-1.672-9.489,2.831    c0.008,2.217-0.857,4.964,1.368,5.749c1.563,0.552,3.769-0.086,5.401-0.087c3.591,0,7.182,0,10.772,0c8.115,0,16.23,0,24.345,0    c2.676,0,4.613,0.592,5.4-1.43c0.165-0.424,0.28-0.964,0.34-1.648C89.149,22.121,84.057,23.395,79.276,23.395z M71.466,29.387    c0-0.118-0.005-0.245-0.022-0.371c0.028-0.004,0.055-0.008,0.081-0.012c0.201,0.153,0.407,0.316,0.505,0.402    C71.834,29.403,71.644,29.397,71.466,29.387z"/></g></g></svg>
