<svg xmlns="http://www.w3.org/2000/svg" fill="#635b52" version="1.1" x="0px" y="0px" viewBox="0 0 100 100"
     enable-background="new 0 0 100 100" xml:space="preserve"><g><g><path d="M64.978,39.384l0.003,1.764c0.003,1.176,0.006,2.351-0.003,3.527c-0.001,0.128-0.012,0.248-0.022,0.362    c-0.06,0.647-0.111,1.206,2.08,1.61c2.031,0.375,4.517,0.295,6.92,0.218c0.829-0.027,1.625-0.052,2.373-0.058    c0.827,0.01,1.72,0.04,2.399-0.068c0.309-0.008,0.59-0.047,0.741-0.072c0.605-0.01,1.125-0.104,1.544-0.279    c2.147-0.896,0.977-7.113,0.997-9.02c0.019-1.78,0.037-3.559,0.029-5.339c-0.004-1.006,0.096-2.023,0.194-3.006    c0.19-1.921,0.387-3.908-0.196-5.884c-0.07-0.241-0.152-0.456-0.44-0.658c-0.759-0.531-1.783-0.531-2.868-0.531    c-0.98,0-1.965-0.006-2.95-0.012c-0.979-0.006-1.974-0.012-2.973-0.012c-0.993,0-1.99,0.006-2.976,0.024    c-5.055,0.091-5.312,1.132-5.312,2.822c0,2.442,0.117,4.913,0.23,7.303C64.861,34.465,64.978,36.938,64.978,39.384z"/><path
        d="M58.561,22.48c-0.759-0.531-1.783-0.531-2.868-0.531c-0.98,0-1.965-0.006-2.95-0.012    c-0.979-0.006-1.974-0.012-2.973-0.012c-0.993,0-1.99,0.006-2.976,0.024c-5.055,0.091-5.312,1.132-5.312,2.822    c0,2.442,0.117,4.913,0.23,7.303c0.113,2.392,0.23,4.865,0.23,7.311l0.003,1.764c0.003,1.176,0.006,2.351-0.003,3.527    c-0.001,0.128-0.012,0.248-0.022,0.362c-0.06,0.647-0.111,1.206,2.08,1.61c2.031,0.374,4.517,0.295,6.92,0.218    c3.474-0.111,8.356,1.619,8.243-3.316c-0.101-4.388,0.049-8.745,0.095-13.174c0.024-2.372,0.426-4.904-0.257-7.238    C58.931,22.897,58.849,22.682,58.561,22.48z"/><path
        d="M35.387,33.109c-0.13-3.198,0.618-6.885-0.292-9.972c-0.07-0.241-0.152-0.456-0.44-0.658    c-0.759-0.531-1.783-0.531-2.868-0.531c-0.98,0-1.965-0.006-2.95-0.012c-0.979-0.006-1.974-0.012-2.973-0.012    c-0.993,0-1.989,0.006-2.976,0.024c-5.055,0.091-5.312,1.132-5.312,2.822c0,2.442,0.117,4.913,0.23,7.303    c0.113,2.392,0.23,4.865,0.23,7.311l0.003,1.764c0.003,1.176,0.006,2.351-0.003,3.527c-0.001,0.128-0.012,0.248-0.022,0.362    c-0.06,0.647-0.111,1.206,2.08,1.61c2.031,0.375,4.517,0.295,6.92,0.218c0.829-0.027,1.625-0.052,2.373-0.058    c0.826,0.01,1.719,0.04,2.399-0.068c0.309-0.008,0.59-0.047,0.741-0.072c0.933-0.016,2.589,0.26,3.092-0.734    c0.26-0.514,0.243-1.118,0.219-1.694C35.688,40.529,35.537,36.819,35.387,33.109z"/><path
        d="M82.232,60.026c0.19-1.921,0.387-3.908-0.196-5.884c-0.07-0.241-0.152-0.456-0.44-0.658    c-0.759-0.532-1.783-0.532-2.868-0.532c-0.98,0-1.965-0.006-2.95-0.012c-0.979-0.006-1.974-0.012-2.973-0.012    c-0.993,0-1.99,0.006-2.976,0.024c-5.055,0.091-5.312,1.132-5.312,2.822c0,2.442,0.117,4.913,0.23,7.303    c0.113,2.392,0.23,4.865,0.23,7.311l0.003,1.764c0.003,1.176,0.006,2.351-0.003,3.527c-0.001,0.128-0.012,0.249-0.022,0.362    c-0.06,0.647-0.111,1.206,2.08,1.61c2.031,0.374,4.517,0.295,6.92,0.218c0.829-0.027,1.625-0.052,2.373-0.058    c0.827,0.01,1.72,0.04,2.399-0.068c0.309-0.008,0.59-0.047,0.741-0.072c0.605-0.01,1.125-0.104,1.544-0.279    c2.147-0.896,0.977-7.113,0.997-9.02c0.019-1.779,0.037-3.559,0.029-5.339C82.034,62.027,82.135,61.01,82.232,60.026z"/><path
        d="M58.561,53.485c-0.759-0.532-1.783-0.532-2.868-0.532c-0.98,0-1.965-0.006-2.95-0.012    c-0.979-0.006-1.974-0.012-2.973-0.012c-0.993,0-1.99,0.006-2.976,0.024c-5.055,0.091-5.312,1.132-5.312,2.822    c0,2.442,0.117,4.913,0.23,7.303c0.113,2.392,0.23,4.865,0.23,7.311l0.003,1.764c0.003,1.176,0.006,2.351-0.003,3.527    c-0.001,0.128-0.012,0.249-0.022,0.362c-0.06,0.647-0.111,1.206,2.08,1.61c2.031,0.374,4.517,0.295,6.92,0.218    c3.474-0.111,8.356,1.619,8.243-3.316c-0.101-4.389,0.049-8.745,0.095-13.174c0.024-2.372,0.426-4.904-0.257-7.238    C58.931,53.902,58.849,53.686,58.561,53.485z"/><path
        d="M35.387,64.114c-0.13-3.198,0.618-6.885-0.292-9.972c-0.07-0.241-0.152-0.456-0.44-0.658    c-0.759-0.532-1.783-0.532-2.868-0.532c-0.98,0-1.965-0.006-2.95-0.012c-0.979-0.006-1.974-0.012-2.973-0.012    c-0.993,0-1.989,0.006-2.976,0.024c-5.055,0.091-5.312,1.132-5.312,2.822c0,2.442,0.117,4.913,0.23,7.303    c0.113,2.392,0.23,4.865,0.23,7.311l0.003,1.764c0.003,1.176,0.006,2.351-0.003,3.527c-0.001,0.128-0.012,0.249-0.022,0.362    c-0.06,0.647-0.111,1.206,2.08,1.61c2.031,0.374,4.517,0.295,6.92,0.218c0.829-0.027,1.625-0.052,2.373-0.058    c0.826,0.01,1.719,0.04,2.399-0.068c0.309-0.008,0.59-0.047,0.741-0.072c0.933-0.016,2.589,0.26,3.092-0.734    c0.26-0.514,0.243-1.118,0.219-1.694C35.688,71.534,35.537,67.824,35.387,64.114z"/></g></g></svg>
